# xmcd
#
# Track frame offsets: 
#        150
#        14097
#        32972
#        50687
#        68585
#        80560
#        94430
#        105792
#        122252
#        137180
#        146905
#        169392
#        183935
#        198945
#        208545
#        216855
#        228210
#        246360
#        257645
#        270142
#        279660
#        290217
#
# Disc length: 4251 seconds
#
# Revision: 8
# Processed by: cddbd v1.5.2PL0 Copyright (c) Steve Scherf et al.
# Submitted via: ExactAudioCopy v1.0b2
#
DISCID=4e109916
DTITLE=Flying Burrito Brothers - The Guilded Palace of Sin and Burrito D
DTITLE=eluxe
DYEAR=1969
DGENRE=Country Rock
TTITLE0=Christine's Tune
TTITLE1=Sin City
TTITLE2=Do Right Woman
TTITLE3=Dark End of the Street
TTITLE4=My Uncle
TTITLE5=Wheels
TTITLE6=Juanita
TTITLE7=Hot Burrito #1
TTITLE8=Hot Burrito #2
TTITLE9=Do You Know How It Feels
TTITLE10=Hippie Boy
TTITLE11=Lazy Days
TTITLE12=Image of Me
TTITLE13=High Fashion Queen
TTITLE14=If You Gotta Go
TTITLE15=Man in the Fog
TTITLE16=Farther Along
TTITLE17=Older Guys
TTITLE18=Cody, Cody
TTITLE19=God's Own Singer
TTITLE20=Down in the Churchyard
TTITLE21=Wild Horses
EXTD=YEAR: 1969
EXTT0=
EXTT1=
EXTT2=
EXTT3=
EXTT4=
EXTT5=
EXTT6=
EXTT7=
EXTT8=
EXTT9=
EXTT10=
EXTT11=
EXTT12=
EXTT13=
EXTT14=
EXTT15=
EXTT16=
EXTT17=
EXTT18=
EXTT19=
EXTT20=
EXTT21=
PLAYORDER=
